<svg xmlns="http://www.w3.org/2000/svg" viewBox="0 0 310 150"><defs><style>.cls-1{fill:none;}.cls-2{font-size:30.66px;font-family:ArialRoundedMTBold, Arial Rounded MT Bold;}.cls-2,.cls-6{fill:#fff;}.cls-3{letter-spacing:-0.02em;}.cls-4{letter-spacing:0em;}.cls-5{letter-spacing:-0.01em;}</style></defs><title>brand-image</title><g id="Layer_2" data-name="Layer 2"><rect class="cls-1" width="310" height="150"/><text class="cls-2" transform="translate(47.93 138.51)"><tspan class="cls-3">c</tspan><tspan class="cls-4" x="17.46" y="0">ha</tspan><tspan class="cls-5" x="54.19" y="0">r</tspan><tspan x="67.22" y="0">lie </tspan><tspan class="cls-3" x="109.72" y="0">g</tspan><tspan x="128.12" y="0">eo</tspan><tspan class="cls-3" x="164.86" y="0">rg</tspan><tspan x="195.92" y="0">e</tspan></text><rect class="cls-1" x="49.34" y="5.02" width="211.33" height="107.94" rx="12" ry="12"/><path class="cls-6" d="M400.76,269.46c-11.39,12.19-27.54,24.16-47,24.16a49.63,49.63,0,0,1,0-99.25c38.65,0,65.46,49.52,65.46,49.52" transform="translate(-245 -185)"/><path class="cls-6" d="M380.78,244v0s25.81,49.62,65.51,49.62a49.63,49.63,0,0,0,0-99.25c-19.46,0-35.59,11.92-47,24.08" transform="translate(-245 -185)"/><path class="cls-6" d="M419.18,243.89s10.83,20.85,27.43,20.85a20.75,20.75,0,1,0,0-41.49C430,223.25,419.18,243.89,419.18,243.89Z" transform="translate(-245 -185)"/><path class="cls-6" d="M380.77,244S370,264.75,353.38,264.75a20.75,20.75,0,0,1,0-41.49C370,223.26,380.77,244,380.77,244Z" transform="translate(-245 -185)"/><path class="cls-1" d="M400.76,269.46c-11.39,12.19-27.54,24.16-47,24.16a49.63,49.63,0,0,1,0-99.25c38.65,0,65.46,49.52,65.46,49.52" transform="translate(-245 -185)"/><path class="cls-1" d="M380.78,244v0s25.81,49.62,65.51,49.62a49.63,49.63,0,0,0,0-99.25c-19.46,0-35.59,11.92-47,24.08" transform="translate(-245 -185)"/><path class="cls-1" d="M419.18,243.89s10.83,20.85,27.43,20.85a20.75,20.75,0,1,0,0-41.49C430,223.25,419.18,243.89,419.18,243.89Z" transform="translate(-245 -185)"/><path class="cls-1" d="M380.77,244S370,264.75,353.38,264.75a20.75,20.75,0,0,1,0-41.49C370,223.26,380.77,244,380.77,244Z" transform="translate(-245 -185)"/><path class="cls-1" d="M400.76,269.46c-11.39,12.19-27.54,24.16-47,24.16a49.63,49.63,0,0,1,0-99.25c38.65,0,65.46,49.52,65.46,49.52" transform="translate(-245 -185)"/><path class="cls-1" d="M380.78,244v0s25.81,49.62,65.51,49.62a49.63,49.63,0,0,0,0-99.25c-19.46,0-35.59,11.92-47,24.08" transform="translate(-245 -185)"/><path class="cls-1" d="M419.18,243.89s10.83,20.85,27.43,20.85a20.75,20.75,0,1,0,0-41.49C430,223.25,419.18,243.89,419.18,243.89Z" transform="translate(-245 -185)"/><path class="cls-1" d="M380.77,244S370,264.75,353.38,264.75a20.75,20.75,0,0,1,0-41.49C370,223.26,380.77,244,380.77,244Z" transform="translate(-245 -185)"/></g></svg>