<svg id="Layer_1" data-name="Layer 1" xmlns="http://www.w3.org/2000/svg" viewBox="0 0 72 72"><defs><style>.cls-1{fill:#ed1e79;stroke:#ed1e79;stroke-miterlimit:10;stroke-width:2px;}.cls-2{fill:#fff;}</style></defs><title>Connection_Circle</title><circle class="cls-1" cx="36" cy="36" r="35"/><path class="cls-2" d="M150.33,124.41a31.62,31.62,0,0,0-44.66,0,.59.59,0,0,0,0,.83.6.6,0,0,0,.84,0,30.43,30.43,0,0,1,43,0,.59.59,0,1,0,.84-.83Z" transform="translate(-92 -92)"/><path class="cls-2" d="M112.06,129.44a.59.59,0,1,0,.83.83,21.4,21.4,0,0,1,30.22,0,.56.56,0,0,0,.42.18.55.55,0,0,0,.41-.18.59.59,0,0,0,0-.83A22.57,22.57,0,0,0,112.06,129.44Z" transform="translate(-92 -92)"/><path class="cls-2" d="M128,130.5a13.49,13.49,0,0,0-9.62,4,.59.59,0,1,0,.83.83,12.43,12.43,0,0,1,17.58,0,.58.58,0,0,0,.42.17.54.54,0,0,0,.41-.17.59.59,0,0,0,0-.83A13.49,13.49,0,0,0,128,130.5Z" transform="translate(-92 -92)"/><path class="cls-2" d="M129.36,138.78c0-.08-.08-.17-.13-.25a1.92,1.92,0,0,0-.18-.22,1.53,1.53,0,0,0-2.09,0,2,2,0,0,0-.19.22,1.49,1.49,0,0,0-.13.25,1,1,0,0,0-.08.28,1.5,1.5,0,0,0,0,.29,1.36,1.36,0,0,0,0,.29,1,1,0,0,0,.08.28,1.49,1.49,0,0,0,.13.25,2,2,0,0,0,.19.22,1.44,1.44,0,0,0,1,.43l.29,0,.27-.09a1.05,1.05,0,0,0,.26-.13l.23-.19a1.92,1.92,0,0,0,.18-.22c.05-.08.09-.17.13-.25a1.52,1.52,0,0,0,.09-.28,2.58,2.58,0,0,0,0-.29c0-.09,0-.19,0-.29A1.52,1.52,0,0,0,129.36,138.78Z" transform="translate(-92 -92)"/></svg>