<svg xmlns="http://www.w3.org/2000/svg" viewBox="0 0 1039.67 301.26"><defs><style>.cls-1{fill:#ed1e79;}.cls-1,.cls-2,.cls-3{stroke:#ed1e79;stroke-miterlimit:10;stroke-width:5px;}.cls-2,.cls-4{fill:#fff;}.cls-3{fill:none;}.cls-4{font-size:251.31px;font-family:Oswald-Regular, Oswald Regular;}.cls-5{letter-spacing:0em;}</style></defs><title>Logo_v4_(pink_background_no_border)</title><g id="Layer_5" data-name="Layer 5"><rect class="cls-1" x="2.5" y="2.5" width="580" height="296.26" rx="12" ry="12"/><path class="cls-2" d="M294.58,220.53C263.34,254,219,286.83,165.49,286.83a136.2,136.2,0,0,1,0-272.4c106.07,0,179.65,135.92,179.65,135.92"/><path class="cls-2" d="M239.74,150.57l0,.06s70.83,136.2,179.79,136.2a136.2,136.2,0,1,0,0-272.4c-53.41,0-97.66,32.72-128.89,66.09"/><path class="cls-2" d="M345.14,150.35s29.74,57.22,75.29,57.22a56.94,56.94,0,0,0,0-113.88C374.88,93.69,345.14,150.35,345.14,150.35Z"/><path class="cls-2" d="M239.72,150.67s-29.61,56.94-75.16,56.94a56.94,56.94,0,1,1,0-113.88C210.11,93.73,239.72,150.67,239.72,150.67Z"/><path class="cls-3" d="M294.58,220.53C263.34,254,219,286.83,165.49,286.83a136.2,136.2,0,0,1,0-272.4c106.07,0,179.65,135.92,179.65,135.92"/><path class="cls-3" d="M239.74,150.57l0,.06s70.83,136.2,179.79,136.2a136.2,136.2,0,1,0,0-272.4c-53.41,0-97.66,32.72-128.89,66.09"/><path class="cls-1" d="M345.14,150.35s29.74,57.22,75.29,57.22a56.94,56.94,0,0,0,0-113.88C374.88,93.69,345.14,150.35,345.14,150.35Z"/><path class="cls-1" d="M239.72,150.67s-29.61,56.94-75.16,56.94a56.94,56.94,0,1,1,0-113.88C210.11,93.73,239.72,150.67,239.72,150.67Z"/><path class="cls-3" d="M294.58,220.53C263.34,254,219,286.83,165.49,286.83a136.2,136.2,0,0,1,0-272.4c106.07,0,179.65,135.92,179.65,135.92"/><path class="cls-3" d="M239.74,150.57l0,.06s70.83,136.2,179.79,136.2a136.2,136.2,0,1,0,0-272.4c-53.41,0-97.66,32.72-128.89,66.09"/><path class="cls-3" d="M345.14,150.35s29.74,57.22,75.29,57.22a56.94,56.94,0,0,0,0-113.88C374.88,93.69,345.14,150.35,345.14,150.35Z"/><path class="cls-3" d="M239.72,150.67s-29.61,56.94-75.16,56.94a56.94,56.94,0,1,1,0-113.88C210.11,93.73,239.72,150.67,239.72,150.67Z"/><text class="cls-4" transform="translate(604.91 227.39) scale(0.33 1)">charlie geo<tspan class="cls-5" x="1002.68" y="0">r</tspan><tspan x="1083.3" y="0">ge</tspan></text></g></svg>