<svg xmlns="http://www.w3.org/2000/svg" viewBox="0 0 1110.18 277.4"><defs><style>.cls-1,.cls-4{fill:#fff;}.cls-1,.cls-2,.cls-3{stroke:#ed1e79;stroke-miterlimit:10;stroke-width:5px;}.cls-2{fill:none;}.cls-3{fill:#ed1e79;}.cls-4{font-size:84.15px;font-family:HelveticaNeue, Helvetica Neue;}.cls-5{letter-spacing:-0.03em;}</style></defs><title>website_navbar</title><g id="Layer_5" data-name="Layer 5"><path class="cls-1" d="M267.79,208.6C236.55,242,192.22,274.9,138.7,274.9a136.2,136.2,0,0,1,0-272.4c106.07,0,179.65,135.92,179.65,135.92"/><path class="cls-1" d="M213,138.65l0,0s70.83,136.2,179.79,136.2a136.2,136.2,0,0,0,0-272.4c-53.41,0-97.66,32.72-128.89,66.09"/><path class="cls-1" d="M318.35,138.42s29.74,57.22,75.29,57.22a56.94,56.94,0,1,0,0-113.88C348.09,81.76,318.35,138.42,318.35,138.42Z"/><path class="cls-1" d="M212.93,138.74s-29.61,56.94-75.16,56.94a56.94,56.94,0,0,1,0-113.88C183.32,81.8,212.93,138.74,212.93,138.74Z"/><path class="cls-2" d="M267.79,208.6C236.55,242,192.22,274.9,138.7,274.9a136.2,136.2,0,0,1,0-272.4c106.07,0,179.65,135.92,179.65,135.92"/><path class="cls-2" d="M213,138.65l0,0s70.83,136.2,179.79,136.2a136.2,136.2,0,0,0,0-272.4c-53.41,0-97.66,32.72-128.89,66.09"/><path class="cls-3" d="M318.35,138.42s29.74,57.22,75.29,57.22a56.94,56.94,0,1,0,0-113.88C348.09,81.76,318.35,138.42,318.35,138.42Z"/><path class="cls-3" d="M212.93,138.74s-29.61,56.94-75.16,56.94a56.94,56.94,0,0,1,0-113.88C183.32,81.8,212.93,138.74,212.93,138.74Z"/><path class="cls-2" d="M267.79,208.6C236.55,242,192.22,274.9,138.7,274.9a136.2,136.2,0,0,1,0-272.4c106.07,0,179.65,135.92,179.65,135.92"/><path class="cls-2" d="M213,138.65l0,0s70.83,136.2,179.79,136.2a136.2,136.2,0,0,0,0-272.4c-53.41,0-97.66,32.72-128.89,66.09"/><path class="cls-2" d="M318.35,138.42s29.74,57.22,75.29,57.22a56.94,56.94,0,1,0,0-113.88C348.09,81.76,318.35,138.42,318.35,138.42Z"/><path class="cls-2" d="M212.93,138.74s-29.61,56.94-75.16,56.94a56.94,56.94,0,0,1,0-113.88C183.32,81.8,212.93,138.74,212.93,138.74Z"/><text class="cls-4" transform="translate(578.12 153.92)">charlie geo<tspan class="cls-5" x="412.91" y="0">r</tspan><tspan x="438.57" y="0">ge</tspan></text></g></svg>