<svg xmlns="http://www.w3.org/2000/svg" viewBox="0 0 349.07 183.04"><defs><style>.cls-1{fill:#fff;}.cls-2,.cls-4{fill:none;}.cls-2,.cls-3{stroke:#ed1e79;stroke-miterlimit:10;stroke-width:5px;}.cls-3{fill:#ed1e79;}</style></defs><title>website_navbar</title><g id="Layer_2" data-name="Layer 2"><path class="cls-1" d="M401.36,305.68C380.94,327.54,352,349,317,349a89,89,0,1,1,0-178c69.33,0,117.41,88.84,117.41,88.84" transform="translate(-225.46 -168.48)"/><path class="cls-1" d="M365.52,260l0,0S411.8,349,483,349a89,89,0,1,0,0-178c-34.9,0-63.83,21.39-84.24,43.2" transform="translate(-225.46 -168.48)"/><path class="cls-1" d="M434.4,259.82s19.44,37.39,49.21,37.39a37.21,37.21,0,1,0,0-74.42C453.84,222.79,434.4,259.82,434.4,259.82Z" transform="translate(-225.46 -168.48)"/><path class="cls-1" d="M365.5,260s-19.35,37.21-49.13,37.21a37.22,37.22,0,0,1,0-74.43C346.15,222.81,365.5,260,365.5,260Z" transform="translate(-225.46 -168.48)"/><path class="cls-2" d="M401.36,305.68C380.94,327.54,352,349,317,349a89,89,0,1,1,0-178c69.33,0,117.41,88.84,117.41,88.84" transform="translate(-225.46 -168.48)"/><path class="cls-2" d="M365.52,260l0,0S411.8,349,483,349a89,89,0,1,0,0-178c-34.9,0-63.83,21.39-84.24,43.2" transform="translate(-225.46 -168.48)"/><path class="cls-3" d="M434.4,259.82s19.44,37.39,49.21,37.39a37.21,37.21,0,1,0,0-74.42C453.84,222.79,434.4,259.82,434.4,259.82Z" transform="translate(-225.46 -168.48)"/><path class="cls-3" d="M365.5,260s-19.35,37.21-49.13,37.21a37.22,37.22,0,0,1,0-74.43C346.15,222.81,365.5,260,365.5,260Z" transform="translate(-225.46 -168.48)"/><path class="cls-2" d="M401.36,305.68C380.94,327.54,352,349,317,349a89,89,0,1,1,0-178c69.33,0,117.41,88.84,117.41,88.84" transform="translate(-225.46 -168.48)"/><path class="cls-4" d="M365.52,260l0,0S411.8,349,483,349a89,89,0,1,0,0-178c-34.9,0-63.83,21.39-84.24,43.2" transform="translate(-225.46 -168.48)"/><path class="cls-2" d="M434.4,259.82s19.44,37.39,49.21,37.39a37.21,37.21,0,1,0,0-74.42C453.84,222.79,434.4,259.82,434.4,259.82Z" transform="translate(-225.46 -168.48)"/><path class="cls-2" d="M365.5,260s-19.35,37.21-49.13,37.21a37.22,37.22,0,0,1,0-74.43C346.15,222.81,365.5,260,365.5,260Z" transform="translate(-225.46 -168.48)"/></g></svg>